<mxfile host="65bd71144e">
    <diagram id="1DmJG_v_HB7CN_tW5fvp" name="Page-1">
        <mxGraphModel dx="2190" dy="1427" grid="1" gridSize="10" guides="1" tooltips="1" connect="1" arrows="1" fold="1" page="1" pageScale="1" pageWidth="827" pageHeight="1169" background="#ffffff" math="0" shadow="0">
            <root>
                <mxCell id="0"/>
                <mxCell id="1" parent="0"/>
                <mxCell id="57" value="" style="rounded=0;whiteSpace=wrap;html=1;" vertex="1" parent="1">
                    <mxGeometry width="840" height="710" as="geometry"/>
                </mxCell>
                <mxCell id="22" value="singleton" style="edgeStyle=none;html=1;fontSize=10;fillColor=#f5f5f5;strokeColor=#666666;" parent="1" source="20" target="21" edge="1">
                    <mxGeometry relative="1" as="geometry">
                        <mxPoint as="offset"/>
                    </mxGeometry>
                </mxCell>
                <mxCell id="20" value="Object" style="html=1;fontSize=10;fillColor=#dae8fc;strokeColor=#6c8ebf;" parent="1" vertex="1">
                    <mxGeometry x="450" y="170" width="110" height="50" as="geometry"/>
                </mxCell>
                <mxCell id="24" value="" style="edgeStyle=none;html=1;fontSize=10;fillColor=#f5f5f5;strokeColor=#666666;" parent="1" source="21" target="23" edge="1">
                    <mxGeometry relative="1" as="geometry"/>
                </mxCell>
                <mxCell id="21" value="&lt;span style=&quot;font-weight: normal&quot;&gt;#&lt;span&gt;Object&lt;/span&gt;&lt;/span&gt;" style="html=1;fontSize=10;fontStyle=1;fillColor=#f5f5f5;fontColor=#333333;strokeColor=#666666;" parent="1" vertex="1">
                    <mxGeometry x="640" y="170" width="110" height="50" as="geometry"/>
                </mxCell>
                <mxCell id="23" value="Class" style="html=1;fontSize=10;fillColor=#f5f5f5;fontColor=#333333;strokeColor=#666666;" parent="1" vertex="1">
                    <mxGeometry x="640" y="90" width="110" height="50" as="geometry"/>
                </mxCell>
                <mxCell id="29" value="klass" style="edgeStyle=none;html=1;fontSize=10;" parent="1" edge="1">
                    <mxGeometry relative="1" as="geometry">
                        <mxPoint x="560" y="245" as="sourcePoint"/>
                    </mxGeometry>
                </mxCell>
                <mxCell id="33" value="singleton" style="edgeStyle=none;html=1;fontSize=10;fillColor=#f5f5f5;strokeColor=#666666;" parent="1" source="30" target="31" edge="1">
                    <mxGeometry relative="1" as="geometry"/>
                </mxCell>
                <mxCell id="47" value="super" style="edgeStyle=none;html=1;fillColor=#dae8fc;strokeColor=#6c8ebf;" parent="1" source="30" target="20" edge="1">
                    <mxGeometry relative="1" as="geometry"/>
                </mxCell>
                <mxCell id="30" value="Car" style="html=1;fontSize=10;fillColor=#dae8fc;strokeColor=#6c8ebf;" parent="1" vertex="1">
                    <mxGeometry x="450" y="260" width="110" height="50" as="geometry"/>
                </mxCell>
                <mxCell id="48" value="super" style="edgeStyle=none;html=1;fillColor=#f5f5f5;strokeColor=#666666;" parent="1" source="31" target="21" edge="1">
                    <mxGeometry relative="1" as="geometry"/>
                </mxCell>
                <mxCell id="31" value="&lt;span style=&quot;font-weight: normal&quot;&gt;#Car&lt;/span&gt;" style="html=1;fontSize=10;fontStyle=1;fillColor=#f5f5f5;fontColor=#333333;strokeColor=#666666;" parent="1" vertex="1">
                    <mxGeometry x="640" y="260" width="110" height="50" as="geometry"/>
                </mxCell>
                <mxCell id="40" value="singleton" style="edgeStyle=none;html=1;fontSize=10;fillColor=#f5f5f5;strokeColor=#666666;" parent="1" source="37" target="38" edge="1">
                    <mxGeometry relative="1" as="geometry"/>
                </mxCell>
                <mxCell id="37" value="car" style="html=1;fontSize=10;fillColor=#dae8fc;strokeColor=#6c8ebf;" parent="1" vertex="1">
                    <mxGeometry x="170" y="425" width="110" height="50" as="geometry"/>
                </mxCell>
                <mxCell id="55" value="&lt;font color=&quot;#1e1e1e&quot;&gt;super&lt;/font&gt;" style="edgeStyle=none;html=1;fontSize=12;fontColor=#569CD6;fillColor=#dae8fc;strokeColor=#6c8ebf;" parent="1" source="38" target="54" edge="1">
                    <mxGeometry relative="1" as="geometry"/>
                </mxCell>
                <mxCell id="38" value="#car" style="html=1;fontSize=10;fillColor=#dae8fc;strokeColor=#6c8ebf;" parent="1" vertex="1">
                    <mxGeometry x="450" y="425" width="110" height="50" as="geometry"/>
                </mxCell>
                <mxCell id="41" value="&lt;div style=&quot;color: rgb(212 , 212 , 212) ; font-family: &amp;#34;menlo&amp;#34; , &amp;#34;monaco&amp;#34; , &amp;#34;courier new&amp;#34; , monospace ; font-weight: bold ; font-size: 14px ; line-height: 21px&quot;&gt;&lt;div&gt;&lt;span style=&quot;color: #c586c0&quot;&gt;class&lt;/span&gt; &lt;span style=&quot;color: #4ec9b0&quot;&gt;Car&lt;/span&gt;&lt;/div&gt;&lt;div&gt;&lt;span style=&quot;color: #c586c0&quot;&gt;&amp;nbsp; def&lt;/span&gt; &lt;span style=&quot;color: #dcdcaa&quot;&gt;initialize&lt;/span&gt;(&lt;span style=&quot;color: #9cdcfe&quot;&gt;kms&lt;/span&gt;)&lt;/div&gt;&lt;div&gt;&lt;span style=&quot;color: #9cdcfe&quot;&gt;&amp;nbsp; &amp;nbsp; @kms&lt;/span&gt; = &lt;span style=&quot;color: #9cdcfe&quot;&gt;kms&lt;/span&gt;&lt;/div&gt;&lt;div&gt;&lt;span style=&quot;color: #c586c0&quot;&gt;&amp;nbsp; end&lt;/span&gt;&lt;/div&gt;&lt;div&gt;&lt;span style=&quot;color: #c586c0&quot;&gt;&amp;nbsp; def&lt;/span&gt; &lt;span style=&quot;color: #dcdcaa&quot;&gt;drive&lt;/span&gt;&lt;/div&gt;&lt;div&gt;&lt;span style=&quot;color: #dcdcaa&quot;&gt;&amp;nbsp; &amp;nbsp; puts&lt;/span&gt; &lt;span style=&quot;color: #ce9178&quot;&gt;&quot;let's go!&quot;&lt;/span&gt;&lt;/div&gt;&lt;div&gt;&lt;span style=&quot;color: #c586c0&quot;&gt;&amp;nbsp; end&lt;/span&gt;&lt;/div&gt;&lt;div&gt;&lt;span style=&quot;color: #c586c0&quot;&gt;end&lt;/span&gt;&lt;/div&gt;&lt;div&gt;  &lt;/div&gt;&lt;div&gt;&lt;span style=&quot;color: #9cdcfe&quot;&gt;&lt;br&gt;&lt;/span&gt;&lt;/div&gt;&lt;div&gt;&lt;span style=&quot;color: #9cdcfe&quot;&gt;car&lt;/span&gt; = &lt;span style=&quot;color: #4ec9b0&quot;&gt;Car&lt;/span&gt;.&lt;span style=&quot;color: #569cd6&quot;&gt;new&lt;/span&gt;(&lt;span style=&quot;color: #b5cea8&quot;&gt;20_000&lt;/span&gt;)  &lt;/div&gt;&lt;div&gt;&lt;span style=&quot;color: #9cdcfe&quot;&gt;car&lt;/span&gt;.&lt;span style=&quot;color: #dcdcaa&quot;&gt;drive&lt;/span&gt;&lt;/div&gt;&lt;/div&gt;" style="text;html=1;align=left;verticalAlign=middle;resizable=0;points=[];autosize=1;strokeColor=none;fillColor=#1E1E1E;spacing=2;labelBackgroundColor=#1e1e1e;" parent="1" vertex="1">
                    <mxGeometry x="50" y="80" width="200" height="240" as="geometry"/>
                </mxCell>
                <mxCell id="46" value="&lt;font color=&quot;#9cdcfe&quot;&gt;@kms&lt;/font&gt;" style="html=1;fontSize=10;fillColor=#1E1E1E;fontStyle=1" parent="1" vertex="1">
                    <mxGeometry x="170" y="475" width="110" height="40" as="geometry"/>
                </mxCell>
                <mxCell id="52" value="" style="edgeStyle=none;html=1;fontColor=#569CD6;" parent="1" source="50" target="51" edge="1">
                    <mxGeometry relative="1" as="geometry"/>
                </mxCell>
                <mxCell id="50" value="&lt;font color=&quot;#569cd6&quot;&gt;:drive&lt;/font&gt;" style="html=1;fontSize=10;fillColor=#1E1E1E;fontStyle=1" parent="1" vertex="1">
                    <mxGeometry x="450" y="475" width="110" height="40" as="geometry"/>
                </mxCell>
                <mxCell id="51" value="&lt;div style=&quot;background-color: rgb(30 , 30 , 30) ; font-family: &amp;#34;menlo&amp;#34; , &amp;#34;monaco&amp;#34; , &amp;#34;courier new&amp;#34; , monospace ; font-size: 12px ; line-height: 21px&quot;&gt;&lt;div&gt;&lt;span style=&quot;color: rgb(156 , 220 , 254)&quot;&gt;car&lt;/span&gt;&lt;font color=&quot;#d4d4d4&quot;&gt;.&lt;/font&gt;&lt;span style=&quot;color: rgb(220 , 220 , 170)&quot;&gt;class&lt;/span&gt;&lt;font color=&quot;#d4d4d4&quot;&gt;.&lt;/font&gt;&lt;span style=&quot;color: rgb(220 , 220 , 170)&quot;&gt;instance_methods(&lt;/span&gt;&lt;font color=&quot;#569cd6&quot;&gt;false&lt;/font&gt;&lt;span style=&quot;color: rgb(220 , 220 , 170)&quot;&gt;)&lt;/span&gt;&lt;/div&gt;&lt;div style=&quot;color: rgb(212 , 212 , 212)&quot;&gt;&lt;span style=&quot;color: #9cdcfe&quot;&gt;car&lt;/span&gt;.&lt;span style=&quot;color: #dcdcaa&quot;&gt;singleton_class&lt;/span&gt;.&lt;span style=&quot;color: #dcdcaa&quot;&gt;instance_methods&lt;/span&gt;&lt;/div&gt;&lt;/div&gt;" style="html=1;fontSize=10;fillColor=#1E1E1E;fontStyle=1" parent="1" vertex="1">
                    <mxGeometry x="365" y="555" width="280" height="80" as="geometry"/>
                </mxCell>
                <mxCell id="53" value="&lt;font style=&quot;font-size: 12px&quot;&gt;&lt;span style=&quot;font-family: &amp;#34;menlo&amp;#34; , &amp;#34;monaco&amp;#34; , &amp;#34;courier new&amp;#34; , monospace ; font-weight: 700 ; text-align: left ; background-color: rgb(30 , 30 , 30) ; color: rgb(156 , 220 , 254)&quot;&gt;car&lt;/span&gt;&lt;span style=&quot;color: rgb(212 , 212 , 212) ; font-family: &amp;#34;menlo&amp;#34; , &amp;#34;monaco&amp;#34; , &amp;#34;courier new&amp;#34; , monospace ; font-weight: 700 ; text-align: left ; background-color: rgb(30 , 30 , 30)&quot;&gt;.&lt;/span&gt;&lt;span style=&quot;font-family: &amp;#34;menlo&amp;#34; , &amp;#34;monaco&amp;#34; , &amp;#34;courier new&amp;#34; , monospace ; font-weight: 700 ; text-align: left ; background-color: rgb(30 , 30 , 30) ; color: rgb(220 , 220 , 170)&quot;&gt;drive&lt;/span&gt;&lt;/font&gt;" style="shape=singleArrow;whiteSpace=wrap;html=1;arrowWidth=0.4;arrowSize=0.4;labelBackgroundColor=none;fontSize=12;fontColor=#569CD6;fillColor=#1E1E1E;" parent="1" vertex="1">
                    <mxGeometry x="300" y="465" width="140" height="60" as="geometry"/>
                </mxCell>
                <mxCell id="54" value="&lt;font color=&quot;#569cd6&quot;&gt;:drive&lt;/font&gt;" style="html=1;fontSize=10;fillColor=#1E1E1E;fontStyle=1" parent="1" vertex="1">
                    <mxGeometry x="450" y="310" width="110" height="40" as="geometry"/>
                </mxCell>
                <mxCell id="56" value="&lt;meta charset=&quot;utf-8&quot;&gt;&lt;span style=&quot;color: rgb(0, 0, 0); font-family: helvetica; font-size: 12px; font-style: normal; font-weight: 400; letter-spacing: normal; text-align: center; text-indent: 0px; text-transform: none; word-spacing: 0px; background-color: rgb(248, 249, 250); display: inline; float: none;&quot;&gt;github@harryuan65&lt;/span&gt;" style="text;whiteSpace=wrap;html=1;" vertex="1" parent="1">
                    <mxGeometry x="697" y="10" width="130" height="30" as="geometry"/>
                </mxCell>
            </root>
        </mxGraphModel>
    </diagram>
</mxfile>